<svg xmlns:xlink="http://www.w3.org/1999/xlink" viewBox="0 0 200 200" xmlns="http://www.w3.org/2000/svg" class="absolute h-80 md:h-96 transform scale-100 md:scale-110 lg:scale-125 translate-y-4 md:translate-y-0 -translate-x-4 md:translate-x-4 lg:translate-x-12 text-blue-base fill-current opacity-10 blob" data-v-1b68bfcc="" width="384"  height="384" ><path d="M55.1,-66.7C68.6,-54.4,74.7,-34.3,78.1,-13.9C81.5,6.5,82.2,27.2,73.1,41.5C64,55.9,45.1,63.8,26.5,68.9C7.9,74,-10.3,76.1,-26.8,71.2C-43.3,66.2,-58.1,54.2,-68.4,38.5C-78.7,22.8,-84.4,3.4,-80.7,-13.6C-76.9,-30.6,-63.7,-45.4,-48.7,-57.4C-33.6,-69.4,-16.8,-78.6,2,-81C20.8,-83.4,41.7,-78.9,55.1,-66.7Z" transform="translate(100 100)" fill="#78A4FA"></path></svg>