<svg xmlns:xlink="http://www.w3.org/1999/xlink" viewBox="0 0 200 200" xmlns="http://www.w3.org/2000/svg" class="absolute h-80 md:h-96 transform scale-100 md:scale-110 lg:scale-125 translate-y-4 md:translate-y-0 -translate-x-4 md:translate-x-4 lg:translate-x-12 text-blue-base fill-current opacity-10 blob" data-v-1b68bfcc="" width="384"  height="384" ><path d="M49.6,-56.4C65.6,-45.6,81,-31.3,85,-14.2C89,3,81.7,22.9,70.4,39C59.1,55,44,67.1,25.9,75.6C7.8,84.1,-13.1,88.9,-30.6,83C-48.1,77.1,-62,60.5,-68.9,42.6C-75.8,24.8,-75.7,5.7,-72.3,-12.6C-68.9,-30.9,-62.2,-48.5,-49.6,-60C-37,-71.4,-18.5,-76.7,-0.9,-75.6C16.7,-74.6,33.5,-67.2,49.6,-56.4Z" transform="translate(100 100)" fill="#55468B"></path></svg>