<svg viewBox="0 0 200 200" xmlns="http://www.w3.org/2000/svg" class="absolute h-80 md:h-96 transform scale-100 md:scale-110 lg:scale-125 translate-y-4 md:translate-y-0 -translate-x-4 md:translate-x-4 lg:translate-x-12 text-blue-base fill-current opacity-10 blob" data-v-1b68bfcc="" width="384"  height="384" ><path d="M56.5,-66.3C72.8,-53.6,85.5,-35.4,88.9,-15.7C92.3,4,86.5,25.3,74.8,40.9C63.1,56.5,45.4,66.4,26.7,73C8,79.6,-11.7,83,-29.5,77.9C-47.3,72.8,-63.2,59.2,-74.1,42C-85.1,24.7,-91.1,3.8,-87.1,-14.8C-83.1,-33.3,-69.1,-49.5,-52.9,-62.3C-36.7,-75,-18.4,-84.5,0.9,-85.5C20.1,-86.5,40.1,-79.1,56.5,-66.3Z" transform="translate(100 100)" fill="#78A4FA"></path></svg>