<svg xmlns:xlink="http://www.w3.org/1999/xlink" viewBox="0 0 200 200" xmlns="http://www.w3.org/2000/svg" class="absolute h-80 md:h-96 transform scale-100 md:scale-110 lg:scale-125 translate-y-4 md:translate-y-0 -translate-x-4 md:translate-x-4 lg:translate-x-12 text-blue-base fill-current opacity-10 blob" data-v-1b68bfcc="" width="384"  height="384" ><path d="M54.5,-67.2C67.6,-53.9,73.1,-33.9,76.8,-13.5C80.4,6.9,82.2,27.7,73.8,43C65.4,58.2,46.9,68,27.3,75.2C7.8,82.3,-12.7,86.8,-31.4,81.9C-50.1,77,-66.9,62.7,-77.4,44.6C-88,26.6,-92.2,4.8,-88.7,-15.7C-85.1,-36.2,-73.8,-55.4,-57.8,-68.1C-41.7,-80.8,-20.9,-87,-0.1,-86.9C20.7,-86.8,41.4,-80.4,54.5,-67.2Z" transform="translate(100 100)" fill="#78A4FA"></path></svg>