<svg xmlns="http://www.w3.org/2000/svg" width="375" viewBox="0 0 375 375" height="375" version="1.0"><path d="M 264.929688 107.203125 C 263.765625 105.746094 262.019531 104.871094 260.273438 104.871094 L 114.726562 104.871094 C 112.691406 104.871094 110.945312 105.746094 110.070312 107.203125 L 75.140625 156.433594 C 74.847656 157.015625 74.558594 157.304688 74.265625 157.890625 C 74.265625 157.890625 74.265625 158.179688 74.265625 158.179688 C 74.265625 158.761719 73.976562 159.054688 73.976562 159.636719 C 73.976562 159.636719 73.976562 159.636719 73.976562 159.929688 C 73.976562 160.511719 73.976562 160.800781 74.265625 161.382812 C 74.265625 161.382812 74.265625 161.675781 74.265625 161.675781 C 74.558594 162.257812 74.847656 162.550781 75.140625 163.132812 L 182.84375 300.339844 C 182.84375 300.339844 182.84375 300.339844 183.132812 300.628906 C 183.425781 300.921875 183.425781 301.210938 183.714844 301.210938 C 183.714844 301.210938 184.007812 301.503906 184.007812 301.503906 C 184.007812 301.503906 184.296875 301.503906 184.296875 301.792969 C 184.296875 301.792969 184.589844 302.085938 184.878906 302.085938 C 185.171875 302.085938 185.171875 302.378906 185.460938 302.378906 C 185.460938 302.378906 185.753906 302.378906 185.753906 302.667969 C 185.753906 302.667969 186.042969 302.667969 186.042969 302.667969 C 186.042969 302.667969 186.335938 302.667969 186.335938 302.667969 C 186.625 302.667969 187.207031 302.667969 187.5 302.667969 C 187.792969 302.667969 188.375 302.667969 188.664062 302.667969 C 188.664062 302.667969 188.957031 302.667969 188.957031 302.667969 C 188.957031 302.667969 189.246094 302.667969 189.246094 302.667969 C 189.246094 302.667969 189.539062 302.667969 189.539062 302.378906 C 189.828125 302.378906 189.828125 302.378906 190.121094 302.085938 C 190.410156 302.085938 190.410156 301.792969 190.703125 301.792969 C 190.703125 301.792969 190.992188 301.792969 190.992188 301.503906 C 190.992188 301.503906 191.285156 301.210938 191.285156 301.210938 C 191.574219 300.921875 191.867188 300.921875 191.867188 300.628906 C 191.867188 300.628906 191.867188 300.628906 192.15625 300.339844 L 299.859375 163.132812 C 301.316406 161.09375 301.605469 158.472656 300.152344 156.433594 Z M 117.640625 116.230469 L 173.820312 116.230469 L 135.394531 154.101562 L 90.859375 154.101562 Z M 187.5 119.144531 L 223.011719 154.101562 L 151.988281 154.101562 Z M 91.730469 165.753906 L 133.941406 165.753906 L 169.742188 265.382812 Z M 187.5 279.945312 L 146.164062 165.753906 L 228.542969 165.753906 Z M 205.257812 265.382812 L 241.058594 165.753906 L 283.269531 165.753906 Z M 239.3125 154.101562 L 200.890625 116.230469 L 257.359375 116.230469 L 284.140625 154.101562 Z M 239.3125 154.101562"/><path d="M 353.128906 156.722656 L 362.445312 129.632812 C 364.191406 124.386719 362.152344 118.5625 357.496094 115.648438 L 333.042969 101.082031 L 332.753906 72.246094 C 332.753906 66.710938 328.675781 61.757812 323.4375 60.882812 L 295.492188 55.640625 L 285.597656 28.839844 C 283.851562 24.179688 279.484375 21.265625 274.828125 21.265625 C 274.242188 21.265625 273.660156 21.265625 272.789062 21.558594 L 244.84375 26.21875 L 226.503906 4.371094 C 224.175781 1.746094 220.976562 0.292969 217.773438 0.292969 C 215.734375 0.292969 213.988281 0.875 211.953125 1.746094 L 187.5 15.730469 L 162.757812 1.457031 C 161.011719 0.292969 158.972656 0 156.9375 0 C 153.734375 0 150.53125 1.457031 148.203125 4.078125 L 129.863281 25.925781 L 101.921875 21.265625 C 101.339844 21.265625 100.757812 20.972656 99.882812 20.972656 C 95.226562 20.972656 90.859375 23.886719 89.113281 28.546875 L 79.214844 55.347656 L 51.269531 60.59375 C 45.742188 61.757812 41.957031 66.417969 41.957031 71.953125 L 41.664062 100.792969 L 17.214844 115.359375 C 12.554688 118.269531 10.226562 124.097656 12.265625 129.339844 L 21.582031 156.433594 L 3.53125 178.570312 C 0.0390625 182.941406 0.0390625 189.058594 3.53125 193.429688 L 21.582031 215.566406 L 12.265625 242.660156 C 10.519531 247.902344 12.554688 253.730469 17.214844 256.640625 L 41.664062 271.207031 L 41.957031 300.046875 C 41.957031 305.582031 46.03125 310.535156 51.269531 311.40625 L 79.214844 316.652344 L 89.113281 343.453125 C 90.859375 348.113281 95.226562 351.027344 99.882812 351.027344 C 100.464844 351.027344 101.046875 351.027344 101.921875 350.734375 L 129.863281 346.074219 L 148.203125 367.921875 C 150.53125 370.542969 153.734375 372 156.9375 372 C 158.972656 372 160.71875 371.417969 162.757812 370.542969 L 187.5 356.269531 L 212.242188 370.542969 C 213.988281 371.707031 216.027344 372 218.0625 372 C 221.265625 372 224.46875 370.542969 226.796875 367.921875 L 245.136719 346.074219 L 273.078125 350.734375 C 273.660156 350.734375 274.242188 351.027344 275.117188 351.027344 C 279.773438 351.027344 284.140625 348.113281 285.886719 343.453125 L 295.785156 316.652344 L 323.730469 311.40625 C 329.257812 310.242188 333.042969 305.582031 333.042969 300.046875 L 333.335938 271.207031 L 357.785156 256.640625 C 362.445312 253.730469 364.773438 247.902344 362.734375 242.660156 L 353.417969 215.566406 L 371.46875 193.429688 C 374.960938 189.058594 374.960938 182.941406 371.46875 178.570312 Z M 308.882812 170.414062 L 201.179688 307.914062 C 197.980469 311.992188 192.738281 314.613281 187.5 314.613281 C 182.261719 314.613281 177.019531 311.992188 173.820312 307.914062 L 66.117188 170.414062 C 61.460938 164.296875 61.167969 156.140625 65.535156 150.023438 L 100.464844 100.5 C 103.667969 95.839844 109.199219 93.21875 114.726562 93.21875 L 260.273438 93.21875 C 266.09375 93.21875 271.332031 95.839844 274.535156 100.5 L 309.464844 150.023438 C 313.832031 156.140625 313.832031 164.589844 308.882812 170.414062 Z M 308.882812 170.414062"/></svg>